<svg version="1.2" xmlns="http://www.w3.org/2000/svg" viewBox="0 0 55 49" width="55" height="49">
	<title>fintech-logo-svg</title>
	<defs>
		<linearGradient id="g1" x1="17.7" y1="1.9" x2="41.7" y2="45.8" gradientUnits="userSpaceOnUse">
			<stop offset="0" stop-color="#00a5a6"/>
			<stop offset=".7" stop-color="#004677"/>
			<stop offset="1" stop-color="#002b55"/>
		</linearGradient>
	</defs>
	<style>
		.s0 { fill: url(#g1) } 
	</style>
	<path id="Path_9" fill-rule="evenodd" class="s0" d="m39.1 23.6v-8.3h7.3v8.3h8.2v7.2h-8.2v10.7h8.2v7.2h-6.8q-0.8 0.1-1.6-0.1-0.8-0.1-1.6-0.3-0.7-0.2-1.5-0.6-0.7-0.3-1.3-0.8-0.7-0.5-1.2-1.1-0.5-0.6-0.8-1.3-0.4-0.7-0.6-1.4-0.1-0.8-0.1-1.6v-10.7h-10.1v17.9h-7.3v-17.9h-7.8v-7.2h7.8v-9.4q0-0.8 0.2-1.6 0.1-0.8 0.5-1.5 0.3-0.7 0.9-1.3 0.5-0.6 1.1-1 0.7-0.5 1.4-0.9 0.7-0.3 1.5-0.5 0.7-0.3 1.5-0.4 0.8-0.1 1.6 0h7.5v7.2h-8.9v9.4zm-18.9 17.9h-2.6v-2.7h2.6zm-14.1-26.2h-2.6v-2.7h2.6zm7.1 8.2h-7.1v-7.3h7.1zm0 2.3v5h-4.9v-5.1h4.9zm0.6-16.2h-3.2v-3.2h3.2zm0 5.8h-5.3v-5.5h5.3zm6.4-3.3v3.3h-3.2v-3.3zm0.1-0.3h-2.7v-2.7h2.7zm-6.5 23.8h-4v-4.1h4zm6.5 2.2h-6.2v-6.4h6.2zm-14.2-25.7h-4.9v-5h4.9zm0-5.8h-6.1v-6.3h6.1zm14.2 16.6h-6.5v-6.6h6.5zm17.5 14.2h-4.9v-5h4.9zm0-14.8h-7.6v-6.9h7.6zm8.5-8.1h-7.2v-7.9h7.2z"/>
</svg>