<svg id="Layer_1" data-name="Layer 1" xmlns="http://www.w3.org/2000/svg" xmlns:xlink="http://www.w3.org/1999/xlink" width="167.909" height="48.729" viewBox="0 0 167.909 48.729">
  <defs>
    <linearGradient id="linear-gradient" x1="0.324" y1="0.04" x2="0.763" y2="0.939" gradientUnits="objectBoundingBox">
      <stop offset="0" stop-color="#00a5a6"/>
      <stop offset="0.66" stop-color="#004677"/>
      <stop offset="1" stop-color="#002b55"/>
    </linearGradient>
  </defs>
  <path id="Path_1" data-name="Path 1" d="M92.74,14.284a1.884,1.884,0,1,1,3.768,0,1.918,1.918,0,0,1-.539,1.37,1.8,1.8,0,0,1-1.336.557,1.915,1.915,0,0,1-1.892-1.927Z" transform="translate(-13.806 -1.782)" fill="#00a0a6" fill-rule="evenodd"/>
  <rect id="Rectangle_1" data-name="Rectangle 1" width="3.117" height="17.375" transform="translate(79.26 17.435)" fill="#002b55"/>
  <path id="Path_2" data-name="Path 2" d="M101.468,37.681V28.2a8.563,8.563,0,0,1,2.021-5.994,7.6,7.6,0,0,1,10.738,0,8.563,8.563,0,0,1,2,5.994v9.479h-3.083V27.637a4.744,4.744,0,0,0-1.2-3.348,4.342,4.342,0,0,0-6.183,0,4.684,4.684,0,0,0-1.216,3.348V37.681Z" transform="translate(-15.141 -2.872)" fill="#002b55" fill-rule="evenodd"/>
  <path id="Path_3" data-name="Path 3" d="M75.52,36.39V19.854q0-4.47,2.218-6.636T84.494,11h3.614v3.126h-4.2a4.975,4.975,0,0,0-3.7,1.37,5.241,5.241,0,0,0-1.319,3.845v2.834h9.248v3.117H78.851V36.424Z" transform="translate(-11.264 -1.58)" fill="#002b55" fill-rule="evenodd"/>
  <path id="Path_4" data-name="Path 4" d="M155.752,30.539a11.834,11.834,0,0,1-3.965,5.138A9.694,9.694,0,0,1,146,37.5a8.76,8.76,0,0,1-3.425-.7,8.657,8.657,0,0,1-2.929-2.012,9.137,9.137,0,0,1-2.029-2.946,9.694,9.694,0,0,1,0-7.159,9.086,9.086,0,0,1,2-3.031,8.94,8.94,0,0,1,2.911-1.987A8.829,8.829,0,0,1,146,18.97a8.709,8.709,0,0,1,4.907,1.447,10.713,10.713,0,0,1,3.579,4.2l-8.7,5.926-2.184-3.3,4.718-3.288a3.922,3.922,0,0,0-.959-.454,3.425,3.425,0,0,0-1.028-.146A3.7,3.7,0,0,0,143.5,24.63a4.427,4.427,0,0,0-1.165,3.117,4.513,4.513,0,0,0,1.147,3.151,3.648,3.648,0,0,0,2.817,1.276,5,5,0,0,0,2.894-.933,7.527,7.527,0,0,0,2.278-2.732Z" transform="translate(-20.455 -2.725)" fill="#002b55" fill-rule="evenodd"/>
  <path id="Path_5" data-name="Path 5" d="M172.981,24.785h-2.458a4.932,4.932,0,0,0-3.211.959,3.134,3.134,0,0,0-1.19,2.569,3.074,3.074,0,0,0,1.19,2.569,4.984,4.984,0,0,0,3.211.942h2.458V37.3h-2.107a11.3,11.3,0,0,1-7.656-2.475,8.178,8.178,0,0,1-2.86-6.517,8.144,8.144,0,0,1,2.86-6.5,11.346,11.346,0,0,1,7.656-2.466h2.107Z" transform="translate(-24.039 -2.778)" fill="#002b55" fill-rule="evenodd"/>
  <path id="Path_6" data-name="Path 6" d="M178,36.016V10.66h5.617v8.563a5.943,5.943,0,0,1,1.9-1.147,6.483,6.483,0,0,1,2.192-.377,5.926,5.926,0,0,1,4.924,2.372,10.327,10.327,0,0,1,1.833,6.474v9.471h-5.626v-10a2.92,2.92,0,0,0-.736-2.055,2.637,2.637,0,0,0-3.742,0,2.886,2.886,0,0,0-.745,2.055v10Z" transform="translate(-26.575 -1.532)" fill="#002b55" fill-rule="evenodd"/>
  <path id="Path_7" data-name="Path 7" d="M122.779,13.92H128.4v4.607h4.461v5.266H128.4v5.66a1.807,1.807,0,0,0,.411,1.344,2.141,2.141,0,0,0,1.473.394h2.569v5.292h-2.1q-4.11,0-6.046-1.8c-1.293-1.2-1.944-3.083-1.944-5.635V23.793H128.3V18.527H122.77Z" transform="translate(-18.301 -2)" fill="#002b55" fill-rule="evenodd"/>
  <path id="Path_8" data-name="Path 8" d="M78.339,50.227a7.27,7.27,0,0,1-1.036-.06,3.973,3.973,0,0,1-.736-.188,1.636,1.636,0,0,1-.488-.291,1.182,1.182,0,0,1-.291-.368,1.455,1.455,0,0,1-.128-.428,2.954,2.954,0,0,1,0-.488v-.985l.856.077-.051.351a2.509,2.509,0,0,0,0,.351,1.473,1.473,0,0,0,.077.514.642.642,0,0,0,.325.351,2.038,2.038,0,0,0,.728.2,9.89,9.89,0,0,0,1.276.069h4.059V46.357h.856v3.871ZM178.759,43h.9v7.2h-.9Zm-3.973,6.3h1.353V43h.908v7.21h-3.9a8.565,8.565,0,0,1-.856-.128,6.053,6.053,0,0,1-.617.077,3.08,3.08,0,0,0-.677.051,3.365,3.365,0,0,1-.719,0h-1.276a2.338,2.338,0,0,1-.856-.137,1.969,1.969,0,0,1-.591-.334,1.036,1.036,0,0,1-.334.334.925.925,0,0,1-.531.137h-1.25a2.286,2.286,0,0,1-.856-.137,1.969,1.969,0,0,1-.591-.334,1.241,1.241,0,0,1-.334.334.942.942,0,0,1-.531.137H160.28a2.569,2.569,0,0,1-.531,0,2,2,0,0,1-.42-.12,1.764,1.764,0,0,1-.334-.18,2.49,2.49,0,0,1-.283-.223,1.129,1.129,0,0,1-.137.214,1.378,1.378,0,0,1-.2.188,1.182,1.182,0,0,1-.257.12,1.25,1.25,0,0,1-.325,0h-4.179a7.27,7.27,0,0,1-1.036-.06,3.425,3.425,0,0,1-.736-.188,1.567,1.567,0,0,1-.488-.291,1.284,1.284,0,0,1-.283-.368,1.4,1.4,0,0,1-.137-.428,2.936,2.936,0,0,1,0-.48,2.084,2.084,0,0,1,0-.223V47.41l.856.069-.051.351a2.425,2.425,0,0,0,0,.351,1.473,1.473,0,0,0,.077.514.6.6,0,0,0,.317.351,2.149,2.149,0,0,0,.728.2,9.89,9.89,0,0,0,1.276.069h3.425a.291.291,0,0,0,.257-.146.8.8,0,0,0,.094-.428V43h.856v5.874a1.558,1.558,0,0,0,.582.325,3,3,0,0,0,.856.111h2.655a.308.308,0,0,0,.257-.146.805.805,0,0,0,.086-.428v-2.4h.942v2.655a1.893,1.893,0,0,0,.531.24,3.083,3.083,0,0,0,.736.077h1.062a.291.291,0,0,0,.248-.146.8.8,0,0,0,.094-.428v-2.4h.908v2.655a1.781,1.781,0,0,0,.531.24,3.083,3.083,0,0,0,.736.077h1.43a.977.977,0,0,1-.231-.265,1.788,1.788,0,0,1-.163-.308,1.645,1.645,0,0,1-.094-.317,1.157,1.157,0,0,1,0-.283,1.884,1.884,0,0,1,.154-.754,1.713,1.713,0,0,1,.428-.625,1.944,1.944,0,0,1,.676-.428,2.3,2.3,0,0,1,.856-.163,1.961,1.961,0,0,1,.771.146,1.559,1.559,0,0,1,.9.942,2.021,2.021,0,0,1,.12.685,2.27,2.27,0,0,1,0,.428,2.572,2.572,0,0,1-.086.385.826.826,0,0,1-.12.325,2.668,2.668,0,0,0-.1.257h1.293Zm-3.494-4.778a.505.505,0,0,0,.154.377.514.514,0,0,0,.377.154.454.454,0,0,0,.214,0,.54.54,0,0,0,.171-.111.5.5,0,0,0,.111-.171.514.514,0,0,0,0-.411.591.591,0,0,0-.111-.171.77.77,0,0,0-.171-.12.6.6,0,0,0-.214,0,.591.591,0,0,0-.206,0,.617.617,0,0,0-.171.12.591.591,0,0,0-.111.171.514.514,0,0,0,0,.206ZM170.753,48a1.182,1.182,0,0,0,.111.531,1.259,1.259,0,0,0,.317.411,1.49,1.49,0,0,0,.471.265,1.79,1.79,0,0,0,.574.094h.317a1.284,1.284,0,0,0,.128-.223,1.422,1.422,0,0,0,.128-.283c.043-.111.068-.223.1-.343a1.816,1.816,0,0,0,0-.377,1.216,1.216,0,0,0-.086-.488,1.182,1.182,0,0,0-.231-.36,1.284,1.284,0,0,0-.342-.214,1.19,1.19,0,0,0-.394-.069,1.362,1.362,0,0,0-.411.06,1.113,1.113,0,0,0-.36.188.916.916,0,0,0-.257.334,1.01,1.01,0,0,0-.1.471ZM166.72,44.55a.531.531,0,0,0,.146.377.522.522,0,0,0,.385.154.445.445,0,0,0,.206,0,.454.454,0,0,0,.171-.111.394.394,0,0,0,.111-.171.514.514,0,0,0,0-.411.454.454,0,0,0-.111-.171.617.617,0,0,0-.171-.12.591.591,0,0,0-.206,0,.6.6,0,0,0-.214,0,.573.573,0,0,0-.163.12.454.454,0,0,0-.111.171.4.4,0,0,0-.043.206Zm-4.282,0a.505.505,0,0,0,.154.377.514.514,0,0,0,.377.154.454.454,0,0,0,.214,0,.54.54,0,0,0,.171-.111.5.5,0,0,0,.111-.171.514.514,0,0,0,0-.411.59.59,0,0,0-.111-.171.771.771,0,0,0-.171-.12.6.6,0,0,0-.214,0,.591.591,0,0,0-.206,0,.617.617,0,0,0-.171.12.591.591,0,0,0-.111.171.514.514,0,0,0,0,.206Zm1.43,0a.505.505,0,0,0,.154.377.514.514,0,0,0,.377.154.4.4,0,0,0,.206,0,.394.394,0,0,0,.171-.111.411.411,0,0,0,.12-.171.514.514,0,0,0,0-.411.48.48,0,0,0-.12-.171.345.345,0,0,0-.377-.12.548.548,0,0,0-.206,0,.617.617,0,0,0-.171.12.59.59,0,0,0-.111.171.514.514,0,0,0-.043.206Zm-7.887,1.4.077-.514h-.471a1.327,1.327,0,0,0-.471.069,1,1,0,0,0-.325.18.694.694,0,0,0-.188.257.762.762,0,0,0-.06.308.96.96,0,0,0,0,.274,1.344,1.344,0,0,0,.1.223.857.857,0,0,0,.128.163l.12.1h-.676v.5h1.833v-.5h-.171a1.07,1.07,0,0,1-.385-.06.711.711,0,0,1-.265-.146.557.557,0,0,1-.214-.428.368.368,0,0,1,.163-.343.762.762,0,0,1,.42-.1h.351Zm-10.952,3.374h1.353V43h.856v7.21h-2.321a2.321,2.321,0,0,1-.856-.137,1.97,1.97,0,0,1-.591-.334,1.036,1.036,0,0,1-.334.334.925.925,0,0,1-.531.137h-2.792a8.565,8.565,0,0,1-.856-.128,6.055,6.055,0,0,1-.617.077,3.08,3.08,0,0,0-.676.051,3.365,3.365,0,0,1-.719,0h-1.284a2.321,2.321,0,0,1-.856-.137,1.969,1.969,0,0,1-.591-.334,1.036,1.036,0,0,1-.334.334.925.925,0,0,1-.531.137H132.1a2.261,2.261,0,0,1-.856-.137,2.132,2.132,0,0,1-.6-.334,1.1,1.1,0,0,1-.325.334.942.942,0,0,1-.531.137h-1.781a2.158,2.158,0,0,1-.565-.06,1.3,1.3,0,0,1-.394-.163.933.933,0,0,1-.24-.248,1.164,1.164,0,0,1-.12-.283,2.98,2.98,0,0,1-.711.317,2.278,2.278,0,0,1-.676.1,2.483,2.483,0,0,1-.608-.086,1.781,1.781,0,0,1-.557-.274,1.439,1.439,0,0,1-.4-.471,1.327,1.327,0,0,1-.163-.685,1.456,1.456,0,0,1,.154-.676,1.884,1.884,0,0,1,.411-.531,2.381,2.381,0,0,1,.582-.411,4.718,4.718,0,0,1,.668-.308c.231-.094.454-.163.676-.231l.6-.171V45.5h.908v3.442a.42.42,0,0,0,.1.214.343.343,0,0,0,.2.111,1.259,1.259,0,0,0,.351,0h1.362a.308.308,0,0,0,.257-.146.8.8,0,0,0,.086-.428V46.3h.831v2.7a1.781,1.781,0,0,0,.531.24,3.083,3.083,0,0,0,.736.077h1.062a.291.291,0,0,0,.248-.146.8.8,0,0,0,.094-.428v-2.4h.908v2.655a1.781,1.781,0,0,0,.531.24,3.04,3.04,0,0,0,.736.077h1.43a.977.977,0,0,1-.231-.265,1.79,1.79,0,0,1-.163-.308,1.646,1.646,0,0,1-.094-.317,1.155,1.155,0,0,1,0-.283,1.884,1.884,0,0,1,.154-.754,1.713,1.713,0,0,1,.428-.625,1.944,1.944,0,0,1,.676-.428,2.3,2.3,0,0,1,.9-.163,1.961,1.961,0,0,1,.771.146,1.558,1.558,0,0,1,.856.942,2.02,2.02,0,0,1,.12.685,2.27,2.27,0,0,1-.043.428,1.4,1.4,0,0,1-.086.385,2.37,2.37,0,0,1-.12.325l-.111.257h2.321a.291.291,0,0,0,.248-.146.8.8,0,0,0,.094-.428v-2.4h.908v2.629a1.781,1.781,0,0,0,.531.24,3.04,3.04,0,0,0,.736.077h.051Zm-3.057-4.778a.522.522,0,0,0,.531.531.4.4,0,0,0,.206,0,.454.454,0,0,0,.171-.111.518.518,0,0,0,.12-.582.6.6,0,0,0-.291-.291.518.518,0,0,0-.582.12.454.454,0,0,0-.111.171.4.4,0,0,0-.043.206Zm1.43,0a.531.531,0,0,0,.146.377.522.522,0,0,0,.385.154.445.445,0,0,0,.206,0,.454.454,0,0,0,.171-.111.394.394,0,0,0,.111-.171.514.514,0,0,0,0-.411.454.454,0,0,0-.111-.171.617.617,0,0,0-.171-.12.591.591,0,0,0-.206,0,.6.6,0,0,0-.214,0,.574.574,0,0,0-.163.12.454.454,0,0,0-.111.171.4.4,0,0,0-.043.206Zm-6.14,0a.522.522,0,0,0,.531.531.4.4,0,0,0,.206,0,.454.454,0,0,0,.171-.111.518.518,0,0,0,.12-.582A.6.6,0,0,0,138,44.1a.518.518,0,0,0-.582.12.454.454,0,0,0-.111.171.4.4,0,0,0-.043.206Zm1.43,0a.531.531,0,0,0,.146.377.522.522,0,0,0,.385.154.445.445,0,0,0,.206,0,.454.454,0,0,0,.171-.111.394.394,0,0,0,.111-.171.514.514,0,0,0,0-.411.454.454,0,0,0-.111-.171.616.616,0,0,0-.171-.12.591.591,0,0,0-.206,0,.6.6,0,0,0-.214,0,.574.574,0,0,0-.163.12.454.454,0,0,0-.111.171.4.4,0,0,0-.043.206Zm-1.284,3.477a1.182,1.182,0,0,0,.111.531,1.156,1.156,0,0,0,.317.411,1.49,1.49,0,0,0,.471.265,1.789,1.789,0,0,0,.574.094h.317a1.283,1.283,0,0,0,.128-.223,1.422,1.422,0,0,0,.128-.283,1.408,1.408,0,0,1,.1-.343,1.816,1.816,0,0,0,0-.377,1.216,1.216,0,0,0-.086-.488,1.182,1.182,0,0,0-.231-.36,1.285,1.285,0,0,0-.343-.214,1.19,1.19,0,0,0-.394-.069,1.362,1.362,0,0,0-.411.06,1.027,1.027,0,0,0-.36.188.942.942,0,0,0-.265.334,1.122,1.122,0,0,0-.094.471Zm-4.085-3.477a.531.531,0,0,0,.146.377.522.522,0,0,0,.385.154.445.445,0,0,0,.206,0,.454.454,0,0,0,.171-.111.394.394,0,0,0,.111-.171.514.514,0,0,0,0-.411.454.454,0,0,0-.111-.171.617.617,0,0,0-.171-.12.591.591,0,0,0-.206,0,.6.6,0,0,0-.214,0,.574.574,0,0,0-.163.12.454.454,0,0,0-.111.171.4.4,0,0,0,0,.206Zm-4.282,7.185a.453.453,0,0,1,0-.171.539.539,0,0,1,.111-.171.548.548,0,0,1,.163-.111.6.6,0,0,1,.214,0,.565.565,0,0,1,.377.154.539.539,0,0,1,.111.171.454.454,0,0,1,.043.214.445.445,0,0,1-.043.206.428.428,0,0,1-.111.163.616.616,0,0,1-.171.12.591.591,0,0,1-.206,0,.522.522,0,0,1-.385-.154.548.548,0,0,1-.146-.377Zm1.421,0a.6.6,0,0,1,0-.214.771.771,0,0,1,.12-.171.548.548,0,0,1,.163-.111.6.6,0,0,1,.214,0,.591.591,0,0,1,.206,0,.488.488,0,0,1,.283.283.6.6,0,0,1,.043.214.591.591,0,0,1-.043.206.548.548,0,0,1-.111.163.77.77,0,0,1-.171.12.591.591,0,0,1-.206,0,.522.522,0,0,1-.385-.154.514.514,0,0,1-.154-.377Zm-3.845-4.872a7.417,7.417,0,0,0-.908.223,3.22,3.22,0,0,0-.711.308,1.464,1.464,0,0,0-.454.385.779.779,0,0,0-.163.488.677.677,0,0,0,.334.608,1.439,1.439,0,0,0,.334.137,1.867,1.867,0,0,0,.377,0,2.218,2.218,0,0,0,.651-.086,1.849,1.849,0,0,0,.539-.257Zm-1.61-2.569a.522.522,0,0,0,.154.385.548.548,0,0,0,.377.146.4.4,0,0,0,.206,0,.394.394,0,0,0,.171-.111.445.445,0,0,0,.12-.163.6.6,0,0,0,.043-.214.591.591,0,0,0-.043-.206.479.479,0,0,0-.12-.171.394.394,0,0,0-.171-.111.4.4,0,0,0-.206-.043.42.42,0,0,0-.206.043.454.454,0,0,0-.171.111.565.565,0,0,0-.154.377Zm1.43,0a.522.522,0,0,0,.154.385.514.514,0,0,0,.377.146.445.445,0,0,0,.206,0,.454.454,0,0,0,.154-.111.428.428,0,0,0,.111-.163.454.454,0,0,0,.043-.214.445.445,0,0,0-.043-.206.488.488,0,0,0-.283-.283.445.445,0,0,0-.206-.043.454.454,0,0,0-.214.043.428.428,0,0,0-.163.111.454.454,0,0,0-.111.171.445.445,0,0,0-.043.206ZM118.825,43h.908v7.2h-.908Zm-3.956,6.3H116.2V43h.856v7.21h-2.312a2.886,2.886,0,0,1-.565-.051,2.012,2.012,0,0,1-.437-.137,1.713,1.713,0,0,1-.351-.206,2.021,2.021,0,0,1-.283-.248,1.969,1.969,0,0,1-.617.5,1.944,1.944,0,0,1-.908.2,2.321,2.321,0,0,1-.608-.069,2.783,2.783,0,0,1-.514-.171,2.629,2.629,0,0,1-.4-.24,1.789,1.789,0,0,1-.291-.265,2.056,2.056,0,0,1-.223.334,1.481,1.481,0,0,1-.257.214,1.267,1.267,0,0,1-.3.111,1.764,1.764,0,0,1-.377,0h-.976a4.282,4.282,0,0,1-.762-.06c-.231-.051-.437-.1-.625-.163a3.426,3.426,0,0,1-.488-.188,3.17,3.17,0,0,1-.317-.171,4.477,4.477,0,0,1-.454.223,5.026,5.026,0,0,1-.514.188,5.327,5.327,0,0,1-.582.128,5.139,5.139,0,0,1-.642,0H102.5a2.338,2.338,0,0,1-.856-.137,1.987,1.987,0,0,1-.591-.343.985.985,0,0,1-.334.343.933.933,0,0,1-.539.137H97.837a2.569,2.569,0,0,1-.428.933,2.612,2.612,0,0,1-.711.625,3.871,3.871,0,0,1-.959.385,6.431,6.431,0,0,1-1.139.2l-.094-.856a4.127,4.127,0,0,0,1.644-.4,1.43,1.43,0,0,0,.779-.856h-.856a2.869,2.869,0,0,1-1.045-.171,2.124,2.124,0,0,1-.685-.454,1.781,1.781,0,0,1-.325-.539,2.226,2.226,0,0,1-.111-.7,2.149,2.149,0,0,1,.154-.814,1.824,1.824,0,0,1,.428-.668,2.064,2.064,0,0,1,.676-.445,2.381,2.381,0,0,1,.856-.154,2.287,2.287,0,0,1,.411,0,1.559,1.559,0,0,1,.428.137,1.593,1.593,0,0,1,.394.265,1.764,1.764,0,0,1,.325.411,2.3,2.3,0,0,1,.223.608,3.425,3.425,0,0,1,.086.856v.856h2.1a.291.291,0,0,0,.248-.146.8.8,0,0,0,.094-.428V43h.908v5.994a1.55,1.55,0,0,0,.539.24,3.074,3.074,0,0,0,.745.086h.736a4.959,4.959,0,0,0,.522,0l.428-.051.308-.077a.856.856,0,0,0,.18-.086,3.074,3.074,0,0,1-.428-.4c-.137-.154-.265-.308-.385-.471l-.325-.445a3.313,3.313,0,0,0-.24-.308.384.384,0,0,1,.06-.24l.094-.257a1.088,1.088,0,0,1,.094-.223.334.334,0,0,1,.1-.128l.377-.18a4.772,4.772,0,0,1,.5-.171,4.864,4.864,0,0,1,.6-.128,4.282,4.282,0,0,1,.685-.051,2.877,2.877,0,0,1,.539.051,2.183,2.183,0,0,1,.505.154,1.1,1.1,0,0,1,.368.265.582.582,0,0,1,.146.385,2.116,2.116,0,0,1,0,.368,2.193,2.193,0,0,1-.154.48,3.425,3.425,0,0,1-.343.6,4.967,4.967,0,0,1-.6.7l.291.1.377.069.437.051h1.1a1.1,1.1,0,0,0,.557-.146.728.728,0,0,0,.325-.454,5.482,5.482,0,0,1,.325-.925,4.282,4.282,0,0,1,.377-.668,2.569,2.569,0,0,1,.4-.437,2.227,2.227,0,0,1,.411-.265,1.85,1.85,0,0,1,.385-.128,2.458,2.458,0,0,1,.334,0,1.79,1.79,0,0,1,.617.1,1.661,1.661,0,0,1,.488.257,1.576,1.576,0,0,1,.377.377,2.655,2.655,0,0,1,.265.445,2.407,2.407,0,0,1,.154.48,2.107,2.107,0,0,1,.051.454,1.952,1.952,0,0,1-.1.591,1.661,1.661,0,0,0,.557.257,2.869,2.869,0,0,0,.771.094h.051Zm-2.089-.856a1.336,1.336,0,0,0-.069-.42,1.5,1.5,0,0,0-.205-.445,1.113,1.113,0,0,0-.368-.351.933.933,0,0,0-.522-.146.993.993,0,0,0-.557.2,1.756,1.756,0,0,0-.428.411,2.569,2.569,0,0,0-.308.574,3.16,3.16,0,0,0-.18.676.488.488,0,0,0,.2.146,2.055,2.055,0,0,0,.334.146,2.886,2.886,0,0,0,.411.1,2.441,2.441,0,0,0,.42,0,3.2,3.2,0,0,0,.522,0,1.31,1.31,0,0,0,.4-.137.7.7,0,0,0,.248-.274.925.925,0,0,0,.086-.437Zm-6.243-1.053a.394.394,0,0,0-.069-.214,1.1,1.1,0,0,0-.206-.18,1.182,1.182,0,0,0-.334-.12,1.713,1.713,0,0,0-.437-.051,3.305,3.305,0,0,0-.617.069,4.282,4.282,0,0,0-.728.248,3,3,0,0,0,.206.334,4.522,4.522,0,0,0,.334.428c.128.146.265.291.411.428a2.389,2.389,0,0,0,.42.334,2.244,2.244,0,0,0,.42-.317,3.039,3.039,0,0,0,.325-.368,2.073,2.073,0,0,0,.206-.334.719.719,0,0,0,.069-.257Zm-9.531,1.892v-.574a3.528,3.528,0,0,0-.094-.856,1.482,1.482,0,0,0-.257-.522.745.745,0,0,0-.36-.257,1.379,1.379,0,0,0-.411-.069,1.01,1.01,0,0,0-.428.086,1.113,1.113,0,0,0-.351.24,1.267,1.267,0,0,0-.231.377,1.4,1.4,0,0,0-.086.48,1.224,1.224,0,0,0,.077.428.856.856,0,0,0,.231.351,1.062,1.062,0,0,0,.411.24,1.781,1.781,0,0,0,.608.094Zm-8.212.248a2.055,2.055,0,0,1-.223.334,1.481,1.481,0,0,1-.257.214,1.2,1.2,0,0,1-.308.111,1.636,1.636,0,0,1-.368,0h-.856a1.319,1.319,0,0,1-.574-.111,1.079,1.079,0,0,1-.4-.3,1.465,1.465,0,0,1-.231-.462,2.081,2.081,0,0,1-.077-.582V43h.908v5.832a.736.736,0,0,0,.086.283.317.317,0,0,0,.154.146.694.694,0,0,0,.257,0h.574a1.1,1.1,0,0,0,.557-.146.728.728,0,0,0,.325-.454,5.48,5.48,0,0,1,.325-.925,4.282,4.282,0,0,1,.377-.668,2.569,2.569,0,0,1,.4-.437,2.226,2.226,0,0,1,.411-.265,1.85,1.85,0,0,1,.385-.128,2.457,2.457,0,0,1,.334,0,1.79,1.79,0,0,1,.617.1,1.661,1.661,0,0,1,.488.257,1.713,1.713,0,0,1,.377.377,2.655,2.655,0,0,1,.265.445,2.407,2.407,0,0,1,.154.48,2.107,2.107,0,0,1,.051.454,1.8,1.8,0,0,1-.051.411,2.569,2.569,0,0,1-.146.428,1.713,1.713,0,0,1-.265.4,1.532,1.532,0,0,1-.368.334,1.559,1.559,0,0,1-.5.231,1.953,1.953,0,0,1-.617.086,2.321,2.321,0,0,1-.608-.069A2.783,2.783,0,0,1,89.479,50a2.629,2.629,0,0,1-.4-.24,1.79,1.79,0,0,1-.291-.265Zm2.946-1.045a1.336,1.336,0,0,0-.069-.42,1.5,1.5,0,0,0-.206-.445,1.2,1.2,0,0,0-.368-.351.933.933,0,0,0-.522-.146.993.993,0,0,0-.539.154,1.756,1.756,0,0,0-.428.411,2.569,2.569,0,0,0-.308.574,3.159,3.159,0,0,0-.18.676.488.488,0,0,0,.2.146,2.055,2.055,0,0,0,.334.146,2.885,2.885,0,0,0,.411.1,2.441,2.441,0,0,0,.42,0,3.271,3.271,0,0,0,.522,0A1.25,1.25,0,0,0,91.4,49.2a.659.659,0,0,0,.257-.274.925.925,0,0,0,.086-.437ZM78.81,44.55a.4.4,0,0,1,0-.206.454.454,0,0,1,.111-.171.574.574,0,0,1,.163-.12.6.6,0,0,1,.214,0,.591.591,0,0,1,.206,0,.617.617,0,0,1,.171.12.454.454,0,0,1,.111.171.514.514,0,0,1,0,.411.394.394,0,0,1-.111.171.454.454,0,0,1-.171.111.445.445,0,0,1-.206,0,.522.522,0,0,1-.385-.154.531.531,0,0,1-.146-.377Zm1.422,0a.514.514,0,0,1,.043-.206.616.616,0,0,1,.12-.171.574.574,0,0,1,.163-.12.6.6,0,0,1,.214,0,.591.591,0,0,1,.206,0,.771.771,0,0,1,.171.12.591.591,0,0,1,.111.171.514.514,0,0,1,0,.411.5.5,0,0,1-.111.171.54.54,0,0,1-.171.111.445.445,0,0,1-.206,0,.522.522,0,0,1-.385-.154.505.505,0,0,1-.154-.334Z" transform="translate(-11.869 -6.178)" fill="#002b55" fill-rule="evenodd"/>
  <path id="Path_9" data-name="Path 9" d="M30.434,23.6h8.7V15.345h7.227V23.6h8.264v7.227H46.361V41.5h8.264v7.227H47.774A9.788,9.788,0,0,1,41.78,46.9a6.388,6.388,0,0,1-2.7-5.4V30.828H28.952v17.9H21.716v-17.9H13.881V23.6h7.835v-9.42a6.414,6.414,0,0,1,2.715-5.429,9.779,9.779,0,0,1,5.994-1.8h7.459v7.227H28.952V23.6ZM20.312,38.766H17.649V41.5h2.663V38.766ZM6.174,12.639H3.537v2.7H6.174Zm7.1,3.631h-7.1v7.287h7.1Zm0,9.5H8.383v5.061h4.9V25.8Zm.617-19.43H10.73V9.582h3.16Zm0,3.545H8.563v5.463H13.89ZM20.312,12.1H17.126v3.245h3.16V12.1Zm0-3.066H17.649v2.732h2.663V9.034ZM13.89,31.47H9.848v4.145H13.89Zm6.414,0H14.129v6.337H20.3ZM6.148,7.048H1.259v5.027h4.89ZM6.174,0H0V6.337H6.174ZM20.321,16.33H13.89v6.594h6.431ZM37.858,32.095h-4.9v5.027h4.9V32.095Zm0-16.638H30.237v6.851h7.621Zm8.495-9.12H39.134v7.852h7.219Z" fill-rule="evenodd" fill="url(#linear-gradient)"/>
</svg>
