<?xml version="1.0" encoding="utf-8"?>
<!-- Generator: Adobe Illustrator 26.0.1, SVG Export Plug-In . SVG Version: 6.00 Build 0)  -->
<svg version="1.1" id="Layer_1" xmlns="http://www.w3.org/2000/svg" xmlns:xlink="http://www.w3.org/1999/xlink" x="0px" y="0px"
	 viewBox="0 0 595.28 144.35" style="enable-background:new 0 0 595.28 144.35;" xml:space="preserve">
<style type="text/css">
	.st0{fill-rule:evenodd;clip-rule:evenodd;fill:#FFFFFF;}
	.st1{fill-rule:evenodd;clip-rule:evenodd;fill:#0C9EA4;}
	.st2{fill:#152D53;}
	.st3{fill-rule:evenodd;clip-rule:evenodd;fill:#152D53;}
	.st4{fill-rule:evenodd;clip-rule:evenodd;fill:url(#SVGID_1_);}
	.st5{fill:#8B8A8A;}
	.st6{fill:#3EB981;}
	.st7{fill:#1A1A1A;}
	.st8{fill:#FFFFFF;}
	.st9{fill-rule:evenodd;clip-rule:evenodd;fill:#3EB981;}
	.st10{clip-path:url(#SVGID_00000066477385319303959870000003665034494638469529_);}
	.st11{fill:#E5E5E5;}
	.st12{fill:#CF1485;}
	.st13{clip-path:url(#SVGID_00000066477385319303959870000003665034494638469529_);fill:#CF1485;}
	.st14{clip-path:url(#SVGID_00000066477385319303959870000003665034494638469529_);fill:#DCDBDB;}
	.st15{clip-path:url(#SVGID_00000085252025649293078560000003918685955533338533_);}
	.st16{fill:#EBEBEB;}
	.st17{fill:#042642;}
	.st18{clip-path:url(#SVGID_00000085252025649293078560000003918685955533338533_);fill:#3EB981;}
	.st19{clip-path:url(#SVGID_00000085252025649293078560000003918685955533338533_);fill:#042642;}
	.st20{fill-rule:evenodd;clip-rule:evenodd;fill:#616263;}
	.st21{fill-rule:evenodd;clip-rule:evenodd;fill:url(#SVGID_00000104670502974075551480000002663356207516341171_);}
	.st22{fill-rule:evenodd;clip-rule:evenodd;fill:url(#SVGID_00000019659548059610643950000017219735746539317919_);}
	.st23{fill-rule:evenodd;clip-rule:evenodd;fill:url(#SVGID_00000040565300189393013370000014542149101016658366_);}
	.st24{fill-rule:evenodd;clip-rule:evenodd;fill:url(#SVGID_00000063616094271284422000000008748543572831445136_);}
	.st25{fill-rule:evenodd;clip-rule:evenodd;fill:url(#SVGID_00000171679282715084988440000016175794163160733349_);}
	.st26{fill-rule:evenodd;clip-rule:evenodd;fill:url(#SVGID_00000090999634557817835010000013268854487148205212_);}
	.st27{opacity:0.05;fill-rule:evenodd;clip-rule:evenodd;fill:url(#SVGID_00000023960788580802589300000005460426273296994967_);}
	.st28{opacity:0.05;fill-rule:evenodd;clip-rule:evenodd;fill:url(#SVGID_00000147936862075162879740000017180006214066112430_);}
	.st29{opacity:0.05;fill-rule:evenodd;clip-rule:evenodd;fill:url(#SVGID_00000162350044602931632240000010382532233835960505_);}
	.st30{clip-path:url(#SVGID_00000008866799806605755380000006554725257585690503_);}
	.st31{clip-path:url(#SVGID_00000008866799806605755380000006554725257585690503_);fill:#CF1485;}
	.st32{clip-path:url(#SVGID_00000008866799806605755380000006554725257585690503_);fill:#DCDBDB;}
	.st33{fill-rule:evenodd;clip-rule:evenodd;fill:url(#SVGID_00000088835537466750167910000017445787211091504792_);}
	.st34{fill-rule:evenodd;clip-rule:evenodd;fill:url(#SVGID_00000043445933521904817390000017863847913639804569_);}
	.st35{fill-rule:evenodd;clip-rule:evenodd;fill:url(#SVGID_00000103234031086597334400000008998534041159157934_);}
	.st36{opacity:0.05;fill-rule:evenodd;clip-rule:evenodd;fill:url(#SVGID_00000072997257109880024250000001004706373889631637_);}
	.st37{opacity:0.05;fill-rule:evenodd;clip-rule:evenodd;fill:url(#SVGID_00000096742881178576721490000000813974860865567133_);}
	.st38{opacity:0.05;fill-rule:evenodd;clip-rule:evenodd;fill:url(#SVGID_00000156566543584090146270000011117965076532106934_);}
	.st39{fill:#B52183;}
	.st40{fill:#7D7D7D;}
	.st41{fill-rule:evenodd;clip-rule:evenodd;fill:url(#SVGID_00000110452227487910868420000008920749621823689907_);}
	.st42{fill-rule:evenodd;clip-rule:evenodd;fill:url(#SVGID_00000176734311958808708450000007358819749809688704_);}
	.st43{fill-rule:evenodd;clip-rule:evenodd;fill:url(#SVGID_00000013159736457004253720000015667824093322197399_);}
	.st44{fill-rule:evenodd;clip-rule:evenodd;fill:url(#SVGID_00000061449195397771225550000000872690842199859385_);}
	.st45{fill-rule:evenodd;clip-rule:evenodd;fill:url(#SVGID_00000049908026978852069270000001060216326590114692_);}
	.st46{fill-rule:evenodd;clip-rule:evenodd;fill:url(#SVGID_00000001647991875659766860000002736109289100181669_);}
	.st47{opacity:0.99;}
	.st48{opacity:0.05;fill-rule:evenodd;clip-rule:evenodd;fill:url(#SVGID_00000095328125577136488560000000508043005141433247_);}
	.st49{opacity:0.05;fill-rule:evenodd;clip-rule:evenodd;fill:url(#SVGID_00000080912727174711819750000005530135467446915259_);}
	.st50{opacity:0.05;fill-rule:evenodd;clip-rule:evenodd;fill:url(#SVGID_00000086672845809934521700000014263548915425081508_);}
	.st51{opacity:0.13;fill:#CFCFCE;}
</style>
<g>
	<polygon class="st40" points="271.11,139.23 266.16,144.35 89.59,144.35 89.59,139.23 	"/>
	<polygon class="st12" points="290.82,139.23 314.36,117.63 324.07,117.63 300.53,139.23 294.95,144.35 285.24,144.35 	"/>
	<polygon class="st12" points="304.66,144.35 595.41,144.35 595.41,117.63 333.77,117.63 	"/>
	<g>
		<path class="st20" d="M454.91,73.4c-0.62,0-1.32,0.02-2.11,0.07v-5.06c0.24,0,0.54,0.02,0.88,0.02h1.23
			c1.65,0,2.47,0.82,2.47,2.47c0,1.65-0.82,2.47-2.47,2.47L454.91,73.4z M460.69,80.46c-0.19-0.31-0.34-0.64-0.46-0.99l-0.86-2.33
			c-0.16-0.47-0.4-0.91-0.7-1.31c-0.26-0.33-0.61-0.57-1-0.71c0.41-0.14,0.8-0.35,1.14-0.62c0.35-0.27,0.65-0.59,0.91-0.94
			c0.27-0.37,0.48-0.78,0.62-1.22c0.15-0.46,0.22-0.95,0.22-1.44c0-1.58-0.49-2.78-1.46-3.61c-0.97-0.83-2.29-1.24-3.94-1.23
			c-0.52,0-1.21,0-2.08,0.02c-0.87,0.02-1.92,0.04-3.16,0.07l-0.16,0.14v15.59c0.49,0.08,0.99,0.12,1.49,0.11
			c0.31,0,0.59,0,0.85-0.03c0.26-0.03,0.5-0.05,0.71-0.08v-6.01h1.4c0.5-0.04,0.99,0.11,1.39,0.43c0.35,0.35,0.61,0.77,0.76,1.23
			l0.97,2.74c0.15,0.52,0.41,0.99,0.75,1.4c0.29,0.28,0.69,0.43,1.1,0.41c0.44,0.01,0.87-0.08,1.27-0.25
			c0.34-0.14,0.64-0.37,0.86-0.67C461.06,80.97,460.85,80.73,460.69,80.46z"/>
		<path class="st20" d="M468.89,78.92c-0.55,0.62-1.33,0.98-2.16,1.01c-0.35,0.02-0.7-0.12-0.94-0.38c-0.25-0.3-0.37-0.68-0.35-1.07
			c-0.05-0.48,0.15-0.95,0.53-1.25c0.46-0.28,1-0.42,1.54-0.38c0.21,0,0.44,0,0.67,0.02l0.71,0.05L468.89,78.92L468.89,78.92z
			 M471.88,74.1c0-1.31-0.37-2.28-1.11-2.92c-0.79-0.66-1.8-1.01-2.83-0.97c-1.73,0-3.44,0.35-5.03,1.03
			c0.09,0.95,0.35,1.66,0.78,2.14c1.56-0.54,2.73-0.81,3.49-0.81c1.13,0,1.7,0.58,1.7,1.75v0.62c-0.46-0.05-1.11-0.07-1.93-0.07
			c-0.6-0.01-1.2,0.08-1.78,0.25c-0.52,0.15-1,0.4-1.43,0.73c-0.4,0.32-0.72,0.74-0.93,1.21c-0.23,0.53-0.35,1.11-0.33,1.69
			c0,0.44,0.07,0.87,0.22,1.29c0.14,0.41,0.37,0.79,0.67,1.1c0.32,0.34,0.7,0.6,1.13,0.77c0.5,0.2,1.04,0.3,1.57,0.29
			c1.18,0,2.27-0.48,3.26-1.45c0.47,0.76,1.27,1.25,2.16,1.32c0.23-0.2,0.44-0.43,0.6-0.69c0.18-0.27,0.32-0.56,0.41-0.87
			c-0.43-0.32-0.64-0.89-0.64-1.7L471.88,74.1z"/>
		<path class="st20" d="M479.86,75.04l-1.4-0.51c-0.77-0.28-1.15-0.65-1.15-1.13c-0.01-0.29,0.12-0.57,0.34-0.75
			c0.27-0.2,0.61-0.31,0.94-0.29c1.09,0.05,2.17,0.32,3.15,0.81c0.29-0.24,0.5-0.57,0.62-0.93c0.15-0.38,0.22-0.79,0.23-1.19
			c-0.28-0.14-0.57-0.25-0.87-0.35c-0.34-0.11-0.69-0.2-1.06-0.29c-0.36-0.08-0.73-0.15-1.09-0.19c-0.32-0.04-0.65-0.07-0.98-0.07
			c-0.59-0.01-1.18,0.08-1.75,0.25c-0.49,0.15-0.95,0.4-1.34,0.73c-0.37,0.31-0.67,0.69-0.87,1.12c-0.21,0.47-0.32,0.97-0.31,1.49
			c0,1.55,0.97,2.67,2.9,3.38l1.29,0.48c0.82,0.32,1.23,0.75,1.23,1.29c0,0.33-0.18,0.64-0.47,0.8c-0.37,0.22-0.8,0.33-1.23,0.31
			c-0.92,0-1.99-0.33-3.2-0.99c-0.26,0.28-0.47,0.6-0.62,0.95c-0.16,0.35-0.26,0.73-0.29,1.11c1.27,0.74,2.71,1.13,4.18,1.13
			c1.51,0,2.68-0.33,3.49-0.98c0.8-0.63,1.25-1.6,1.22-2.61c0.01-0.78-0.25-1.53-0.73-2.14C481.49,75.8,480.72,75.3,479.86,75.04z"
			/>
		<path class="st20" d="M486.59,68.76c0.49-0.02,0.97-0.09,1.44-0.23c0.15-0.08,0.24-0.51,0.29-1.29c0-0.24-0.02-0.48-0.05-0.71
			c-0.01-0.18-0.08-0.35-0.21-0.47c-0.16-0.1-0.33-0.18-0.52-0.22c-0.3-0.07-0.62-0.1-0.93-0.09c-0.52-0.02-1.04,0.08-1.52,0.31
			c-0.16,0.38-0.24,0.79-0.23,1.2c-0.04,0.4,0.04,0.81,0.22,1.17C485.23,68.62,485.73,68.73,486.59,68.76z"/>
		<path class="st20" d="M486.36,70.39h-0.39c-0.22,0-0.47,0-0.77,0.03l-0.98,0.08c-0.09,0.35-0.14,0.7-0.14,1.06
			c0,0.36,0.05,0.71,0.14,1.06h0.31c0.69,0,1.03,0.42,1.03,1.27v8c0.25,0.05,0.5,0.08,0.75,0.09c0.25,0,0.51,0.02,0.77,0.02
			s0.52,0,0.77-0.02c0.24-0.01,0.48-0.04,0.72-0.09v-9.07c0.04-0.64-0.17-1.28-0.59-1.77C487.57,70.6,486.97,70.36,486.36,70.39z"/>
		<path class="st20" d="M497.83,78.6c-0.58,0.77-1.27,1.15-2.07,1.15c-0.51,0-0.93-0.28-1.23-0.84s-0.49-1.44-0.49-2.63
			s0.18-2.16,0.54-2.78c0.36-0.62,0.84-0.94,1.44-0.94c0.29,0.01,0.58,0.06,0.85,0.17c0.34,0.13,0.66,0.3,0.97,0.5L497.83,78.6
			L497.83,78.6z M500.77,78.6V66.83c0-0.69-0.12-1.17-0.37-1.45c-0.24-0.27-0.67-0.42-1.27-0.42h-1.15l-0.16,0.16v5.75
			c-0.72-0.39-1.53-0.6-2.35-0.62c-0.61-0.01-1.21,0.13-1.76,0.4c-0.56,0.28-1.04,0.69-1.43,1.18c-0.43,0.56-0.76,1.2-0.97,1.87
			c-0.25,0.81-0.37,1.66-0.36,2.51c-0.01,0.83,0.08,1.66,0.25,2.47c0.14,0.67,0.4,1.3,0.76,1.87c0.32,0.49,0.74,0.9,1.25,1.19
			c0.53,0.29,1.13,0.44,1.74,0.43c1.26,0.01,2.46-0.54,3.29-1.49c0.43,0.8,1.25,1.32,2.16,1.36c0.25-0.19,0.46-0.42,0.62-0.69
			c0.17-0.27,0.3-0.56,0.38-0.87C500.99,80.17,500.77,79.54,500.77,78.6z"/>
		<path class="st20" d="M513.26,66.19v10.19c0,1.12-0.16,1.94-0.48,2.45s-0.87,0.77-1.65,0.77c-0.84-0.02-1.66-0.29-2.36-0.76
			c-0.57,0.65-0.95,1.45-1.1,2.3c1.1,0.67,2.37,1.01,3.66,0.99c0.84,0.03,1.68-0.12,2.47-0.43c0.62-0.26,1.15-0.69,1.54-1.23
			c0.4-0.58,0.67-1.25,0.79-1.94c0.15-0.83,0.23-1.66,0.22-2.5V66.2c-1.02-0.15-2.06-0.15-3.09,0L513.26,66.19z"/>
		<path class="st20" d="M524.7,78.92c-0.55,0.62-1.33,0.98-2.16,1.01c-0.35,0.02-0.7-0.12-0.94-0.38c-0.25-0.3-0.37-0.68-0.35-1.07
			c-0.05-0.48,0.15-0.95,0.53-1.25c0.46-0.28,1-0.42,1.54-0.38c0.21,0,0.44,0,0.67,0.02l0.71,0.05L524.7,78.92L524.7,78.92z
			 M527.69,74.1c0-1.31-0.37-2.28-1.11-2.92c-0.79-0.66-1.8-1.01-2.83-0.97c-1.73,0-3.44,0.35-5.03,1.03
			c0.09,0.95,0.35,1.66,0.78,2.14c1.57-0.54,2.73-0.81,3.49-0.81c1.13,0,1.7,0.58,1.7,1.75v0.62c-0.46-0.05-1.11-0.07-1.93-0.07
			c-0.6-0.01-1.2,0.08-1.78,0.25c-0.52,0.15-1,0.4-1.42,0.73c-0.41,0.32-0.73,0.73-0.94,1.21c-0.23,0.53-0.35,1.11-0.33,1.69
			c0,0.44,0.07,0.87,0.22,1.29c0.14,0.41,0.37,0.79,0.67,1.1c0.32,0.34,0.7,0.6,1.13,0.77c0.5,0.2,1.04,0.3,1.57,0.29
			c1.18,0,2.27-0.48,3.26-1.45c0.48,0.76,1.29,1.25,2.19,1.31c0.24-0.2,0.44-0.43,0.6-0.69c0.18-0.27,0.32-0.56,0.41-0.87
			c-0.43-0.32-0.64-0.89-0.64-1.7V74.1z"/>
		<path class="st20" d="M534.69,72.42c0.67,0,1.12,0.24,1.34,0.71c0.25,0.67,0.37,1.38,0.33,2.09c0.39,0.08,0.79,0.12,1.19,0.12
			c0.42,0.03,0.83-0.12,1.14-0.4c0.27-0.32,0.4-0.72,0.38-1.14c0-0.49-0.1-0.96-0.31-1.4c-0.21-0.44-0.5-0.84-0.87-1.16
			c-0.41-0.35-0.87-0.61-1.38-0.78c-0.59-0.2-1.21-0.3-1.83-0.29c-0.64,0-1.27,0.12-1.85,0.37c-0.6,0.25-1.13,0.63-1.57,1.11
			c-0.49,0.53-0.86,1.16-1.09,1.84c-0.28,0.83-0.42,1.7-0.4,2.57c0,1.92,0.41,3.42,1.23,4.52c0.82,1.1,2.04,1.64,3.66,1.64
			c0.82,0,1.63-0.16,2.38-0.47c0.72-0.29,1.37-0.71,1.92-1.25c-0.08-0.35-0.23-0.68-0.45-0.98c-0.19-0.3-0.43-0.55-0.72-0.75
			c-0.43,0.34-0.91,0.61-1.42,0.8c-0.41,0.16-0.84,0.25-1.28,0.26c-0.68,0.05-1.33-0.28-1.7-0.85c-0.35-0.56-0.53-1.48-0.53-2.74
			C532.86,73.69,533.47,72.42,534.69,72.42z"/>
		<path class="st20" d="M550.2,79.25l-0.67-1.79c-0.31-0.95-1.05-1.7-2-2.02c0.41-0.29,0.74-0.68,0.96-1.13l2.14-3.68l-0.14-0.18
			c-0.73-0.03-1.29-0.05-1.65-0.05c-0.77-0.01-1.48,0.44-1.79,1.15l-1.58,2.74c-0.11,0.23-0.35,0.37-0.6,0.37l-0.57,0.02v-7.84
			c0-0.68-0.12-1.15-0.36-1.44c-0.24-0.28-0.65-0.43-1.25-0.43h-1.17l-0.14,0.16v16.76c0.97,0.15,1.95,0.15,2.92,0V77.2
			c0.37-0.03,0.71-0.04,1.03-0.04c0.3-0.01,0.6,0.09,0.84,0.27c0.31,0.29,0.53,0.65,0.66,1.05l0.78,2.1
			c0.13,0.42,0.35,0.81,0.65,1.13c0.29,0.24,0.66,0.36,1.03,0.33c0.78,0.01,1.53-0.33,2.03-0.93
			C550.9,80.85,550.54,80.21,550.2,79.25z"/>
		<path class="st20" d="M463.63,48.46h-3.56c-0.42-0.12-0.76-0.42-0.93-0.82c-0.15-0.28-0.24-0.58-0.26-0.9V46.5
			c0-0.21,0.02-0.42,0.07-0.62c0.1-0.33,0.4-0.55,0.74-0.55c0.27-0.01,0.53,0.06,0.76,0.2c0.26,0.25,0.43,0.58,0.49,0.94l2.25-0.28
			c-0.12-0.72-0.51-1.38-1.09-1.83c-0.69-0.52-1.54-0.79-2.4-0.76c-1.51,0-2.49,0.61-2.93,1.82c-0.13,0.33-0.2,0.69-0.2,1.05
			c0,0.12,0.01,0.24,0.02,0.36c0.05,0.57,0.24,1.13,0.54,1.62h-1.29v1.7h7.8L463.63,48.46z"/>
		<path class="st20" d="M465.41,50.9c0,1.15-0.27,2-0.79,2.56c-0.52,0.5-1.23,0.76-1.96,0.71h-6.46c-0.72,0.05-1.43-0.21-1.95-0.71
			c-0.53-0.56-0.79-1.41-0.79-2.56c0-0.28,0.02-0.57,0.07-0.85c0.14-0.53,0.33-1.05,0.56-1.54l-3.17-0.9
			c-0.29,0.62-0.51,1.27-0.66,1.95c-0.08,0.45-0.12,0.9-0.11,1.35c0,1.9,0.54,3.42,1.61,4.56c1.18,1.25,2.78,1.88,4.81,1.87h6.11
			c2.03,0,3.63-0.62,4.81-1.87c1.07-1.14,1.61-2.66,1.61-4.56v-8.65h-3.67V50.9z"/>
		<path class="st20" d="M494.59,53.51c-0.3-2.77-0.75-4.73-1.35-5.87c-1.08-2.06-2.93-3.09-5.56-3.09
			c-0.87-0.01-1.74,0.13-2.56,0.42c-0.78,0.27-1.5,0.71-2.1,1.29c-0.3,0.29-0.56,0.61-0.78,0.95c-0.36,0.64-0.66,1.31-0.9,2
			l3.59,0.75c0.14-0.41,0.31-0.81,0.51-1.2c0.09-0.15,0.2-0.29,0.33-0.41c0.22-0.21,0.47-0.37,0.76-0.47
			c0.37-0.12,0.75-0.18,1.14-0.17c1.12,0,1.92,0.56,2.4,1.69c0.34,0.8,0.63,2.27,0.86,4.4l0.05,0.35h-9.94h-4.7
			c-0.25-0.01-0.48-0.12-0.64-0.31c-0.27-0.26-0.41-0.62-0.4-0.99V42.25h-3.67v10.63c-0.01,1.16,0.45,2.26,1.29,3.06
			c0.9,0.92,2.13,1.42,3.41,1.4h16.61c0.09,0,0.19,0,0.28,0c0.43-0.03,0.84-0.2,1.15-0.5c0.31-0.27,0.49-0.66,0.49-1.07
			c0-0.09-0.01-0.17-0.02-0.26C494.78,55.1,494.69,54.44,494.59,53.51z"/>
		<path class="st20" d="M488.96,58.99c-0.3-0.3-0.7-0.46-1.12-0.47c-0.21,0-0.41,0.04-0.6,0.12c-0.38,0.17-0.69,0.47-0.86,0.86
			c-0.26,0.59-0.12,1.29,0.35,1.74c0.15,0.14,0.32,0.25,0.51,0.33c0.19,0.08,0.39,0.12,0.6,0.12c0.21,0,0.42-0.04,0.62-0.12
			c0.19-0.08,0.36-0.19,0.51-0.33c0.15-0.14,0.26-0.31,0.34-0.49c0.16-0.4,0.16-0.84,0-1.23C489.23,59.32,489.11,59.14,488.96,58.99
			z"/>
		<path class="st20" d="M514.88,59.03c-0.15-0.15-0.32-0.26-0.51-0.35c-0.2-0.08-0.41-0.12-0.62-0.12c-0.21,0-0.41,0.04-0.6,0.12
			c-0.19,0.08-0.36,0.2-0.51,0.35c-0.15,0.15-0.27,0.32-0.35,0.51c-0.17,0.39-0.17,0.84,0,1.23c0.08,0.19,0.2,0.36,0.35,0.49
			c0.15,0.14,0.32,0.25,0.51,0.33c0.19,0.08,0.39,0.12,0.6,0.12c0.21,0,0.42-0.04,0.62-0.12c0.19-0.08,0.36-0.19,0.51-0.33
			c0.15-0.14,0.27-0.31,0.34-0.49c0.16-0.4,0.16-0.84,0-1.23C515.14,59.35,515.03,59.17,514.88,59.03z"/>
		<path class="st20" d="M518.61,59.03c-0.15-0.15-0.32-0.26-0.51-0.35c-0.2-0.08-0.41-0.12-0.62-0.12c-0.21,0-0.41,0.04-0.6,0.12
			c-0.19,0.08-0.36,0.2-0.51,0.35c-0.15,0.15-0.27,0.32-0.35,0.51c-0.17,0.39-0.17,0.84,0,1.23c0.08,0.19,0.2,0.35,0.35,0.49
			c0.15,0.14,0.32,0.25,0.51,0.33c0.19,0.08,0.39,0.12,0.6,0.12c0.21,0,0.42-0.04,0.62-0.12c0.19-0.08,0.36-0.19,0.51-0.33
			c0.15-0.14,0.26-0.31,0.34-0.49C519.2,60.17,519.07,59.48,518.61,59.03L518.61,59.03z"/>
		<path class="st20" d="M540.25,53.39c-0.5,0.51-1.19,0.79-1.91,0.77h-12.62v-3.14c0-1.15,0.26-2.01,0.79-2.57
			c0.45-0.48,1.1-0.71,1.96-0.71h9.85c0.86,0,1.51,0.23,1.95,0.71c0.53,0.56,0.79,1.42,0.79,2.57
			C541.06,52.04,540.79,52.84,540.25,53.39L540.25,53.39z M538.32,44.57h-9.85c-1.93,0.02-3.15,0.65-3.68,1.89l-0.64-1.8l-3.07,1.85
			c0.59,0.89,0.9,2.23,0.93,4.01v3.66h-2.8c-0.4,0.01-0.78-0.14-1.06-0.42c-0.31-0.36-0.48-0.82-0.48-1.29v-5.8h-3.68v5.56
			c0.04,0.55-0.13,1.1-0.49,1.53c-0.29,0.28-0.69,0.43-1.1,0.41h-1.82l-0.07-0.65c-0.3-2.77-0.75-4.73-1.35-5.87
			c-1.08-2.05-3.2-3.07-6.38-3.07v3.17c1.66,0,2.73,0.56,3.21,1.69c0.34,0.8,0.63,2.27,0.86,4.4l0.05,0.35h-3.06
			c-0.23,0.01-0.46-0.03-0.68-0.12c-0.44-0.26-0.85-0.59-1.21-0.95l-1.35,3.4l0.91,0.4c0.74,0.31,1.53,0.46,2.33,0.45h8.56
			c1.62,0,2.76-0.35,3.42-1.05c0.66,0.7,1.78,1.05,3.37,1.05h19.14c1.94,0,3.51-0.63,4.72-1.9c1.11-1.15,1.67-2.62,1.67-4.41
			c0-1.91-0.54-3.43-1.61-4.56C541.94,45.21,540.34,44.57,538.32,44.57z"/>
		<path class="st20" d="M547.5,46.67v8.23c0.02,1-0.21,1.98-0.66,2.87c-0.21,0.36-0.45,0.71-0.72,1.03
			c-0.61,0.68-1.26,1.32-1.95,1.93l3.04,1.83c0.67-0.59,1.3-1.23,1.89-1.9c0.41-0.48,0.77-1.01,1.07-1.56
			c0.68-1.31,1.02-2.77,0.99-4.25v-8.17H547.5z"/>
		
			<linearGradient id="SVGID_1_" gradientUnits="userSpaceOnUse" x1="-123.6204" y1="8.8541" x2="-52.6992" y2="70.3401" gradientTransform="matrix(1 0 0 -1 477.6316 105.7647)">
			<stop  offset="0" style="stop-color:#7E2D87"/>
			<stop  offset="0.51" style="stop-color:#7E2D87"/>
			<stop  offset="0.67" style="stop-color:#A72286"/>
			<stop  offset="1" style="stop-color:#CF1385"/>
		</linearGradient>
		<path class="st4" d="M417.71,36.89h-4.57c-10.24,0-19.59,7.47-21.11,17.6l0,0c-0.79,5.23-0.37,10.64-0.49,15.97l0,0
			c0,0.06,0.07,0.12,0.12,0.2h10.81V69.4c0-3.45-0.02-6.9,0-10.35l0,0c0.04-6.48,4.78-11.2,11.24-11.21l0,0c3.41,0,6.83,0,10.25,0
			h1.2c0.05-0.2,0.08-0.41,0.1-0.62l0,0c0-3.37,0-6.75,0-10.32h-7.53V36.89z"/>
		
			<linearGradient id="SVGID_00000166672386150669707800000006200901101635950478_" gradientUnits="userSpaceOnUse" x1="-104.5974" y1="-13.8278" x2="-33.2933" y2="47.5348" gradientTransform="matrix(1 0 0 -1 477.6316 105.7647)">
			<stop  offset="0" style="stop-color:#7E2D87"/>
			<stop  offset="0.51" style="stop-color:#7E2D87"/>
			<stop  offset="0.67" style="stop-color:#A72286"/>
			<stop  offset="1" style="stop-color:#CF1385"/>
		</linearGradient>
		<path style="fill-rule:evenodd;clip-rule:evenodd;fill:url(#SVGID_00000166672386150669707800000006200901101635950478_);" d="
			M408.32,76.65v10.89c4.26,0,8.43,0.06,12.6,0l0,0c11.2-0.2,20.63-9.31,21.14-20.47l0,0c0.19-4.17,0.06-8.35,0.07-12.53l0,0
			c-0.02-0.21-0.06-0.42-0.12-0.62h-10.83v1.33l0,0c0,3.56,0.06,7.12-0.03,10.68l0,0c-0.15,6.06-4.92,10.65-10.98,10.67l0,0
			c-2.15,0-4.29,0-6.43,0h-4.25C409.11,76.6,408.72,76.63,408.32,76.65z"/>
		
			<linearGradient id="SVGID_00000163048899000159030670000015166411724331205043_" gradientUnits="userSpaceOnUse" x1="-274.9431" y1="362.567" x2="-203.2655" y2="424.1766" gradientTransform="matrix(1 0 0 -1 636.6316 469.3747)">
			<stop  offset="0" style="stop-color:#7E2D87"/>
			<stop  offset="0.51" style="stop-color:#7E2D87"/>
			<stop  offset="0.67" style="stop-color:#A72286"/>
			<stop  offset="1" style="stop-color:#CF1385"/>
		</linearGradient>
		
			<polygon style="fill-rule:evenodd;clip-rule:evenodd;fill:url(#SVGID_00000163048899000159030670000015166411724331205043_);" points="
			431.19,47.81 442.07,47.81 442.07,36.98 442.07,36.98 431.19,36.98 431.19,36.98 		"/>
	</g>
</g>
</svg>
