<?xml version="1.0" encoding="utf-8"?>
<!-- Generator: Adobe Illustrator 26.0.1, SVG Export Plug-In . SVG Version: 6.00 Build 0)  -->
<svg version="1.1" id="Layer_1" xmlns="http://www.w3.org/2000/svg" xmlns:xlink="http://www.w3.org/1999/xlink" x="0px" y="0px"
	 viewBox="0 0 595.28 187.01" style="enable-background:new 0 0 595.28 187.01;" xml:space="preserve">
<style type="text/css">
	.st0{fill-rule:evenodd;clip-rule:evenodd;fill:#FFFFFF;}
	.st1{fill-rule:evenodd;clip-rule:evenodd;fill:#0C9EA4;}
	.st2{fill:#152D53;}
	.st3{fill-rule:evenodd;clip-rule:evenodd;fill:#152D53;}
	.st4{fill-rule:evenodd;clip-rule:evenodd;fill:url(#SVGID_1_);}
	.st5{fill:#8B8A8A;}
	.st6{fill:#3EB981;}
	.st7{fill:#1A1A1A;}
	.st8{fill:#FFFFFF;}
	.st9{fill-rule:evenodd;clip-rule:evenodd;fill:#3EB981;}
	.st10{clip-path:url(#SVGID_00000054968072407881077490000018101973364753908663_);}
	.st11{fill:#E5E5E5;}
	.st12{fill:#CF1485;}
	.st13{clip-path:url(#SVGID_00000054968072407881077490000018101973364753908663_);fill:#CF1485;}
	.st14{clip-path:url(#SVGID_00000054968072407881077490000018101973364753908663_);fill:#DCDBDB;}
	.st15{clip-path:url(#SVGID_00000111184627082012821400000013615276300214870930_);}
	.st16{fill:#EBEBEB;}
	.st17{fill:#042642;}
	.st18{clip-path:url(#SVGID_00000111184627082012821400000013615276300214870930_);fill:#3EB981;}
	.st19{clip-path:url(#SVGID_00000111184627082012821400000013615276300214870930_);fill:#042642;}
	.st20{fill-rule:evenodd;clip-rule:evenodd;fill:#616263;}
	.st21{fill-rule:evenodd;clip-rule:evenodd;fill:url(#SVGID_00000123401036903517968270000016959619996281997494_);}
	.st22{fill-rule:evenodd;clip-rule:evenodd;fill:url(#SVGID_00000163032493256066112860000013700300622584408964_);}
	.st23{fill-rule:evenodd;clip-rule:evenodd;fill:url(#SVGID_00000127006559019963720090000007890858466112133029_);}
	.st24{fill-rule:evenodd;clip-rule:evenodd;fill:url(#SVGID_00000029744557151342703620000016192135365011409592_);}
	.st25{fill-rule:evenodd;clip-rule:evenodd;fill:url(#SVGID_00000088855861718166882450000000782043634678950547_);}
	.st26{fill-rule:evenodd;clip-rule:evenodd;fill:url(#SVGID_00000016073854163450516550000016481731941702476458_);}
	.st27{opacity:0.05;fill-rule:evenodd;clip-rule:evenodd;fill:url(#SVGID_00000119085651571015179540000013175780214853644967_);}
	.st28{opacity:0.05;fill-rule:evenodd;clip-rule:evenodd;fill:url(#SVGID_00000044861578569020382010000002720085205086561947_);}
	.st29{opacity:0.05;fill-rule:evenodd;clip-rule:evenodd;fill:url(#SVGID_00000008134781577591791990000001193968936216897190_);}
	.st30{clip-path:url(#SVGID_00000047036399953205909690000003542958908936560012_);}
	.st31{clip-path:url(#SVGID_00000047036399953205909690000003542958908936560012_);fill:#CF1485;}
	.st32{clip-path:url(#SVGID_00000047036399953205909690000003542958908936560012_);fill:#DCDBDB;}
	.st33{fill-rule:evenodd;clip-rule:evenodd;fill:url(#SVGID_00000039114800705007356490000017029015674980832643_);}
	.st34{fill-rule:evenodd;clip-rule:evenodd;fill:url(#SVGID_00000033360884495262032460000008918408522984073612_);}
	.st35{fill-rule:evenodd;clip-rule:evenodd;fill:url(#SVGID_00000072271705532890259810000008140509668331244433_);}
	.st36{opacity:0.05;fill-rule:evenodd;clip-rule:evenodd;fill:url(#SVGID_00000104693782511717576230000013160981761058966448_);}
	.st37{opacity:0.05;fill-rule:evenodd;clip-rule:evenodd;fill:url(#SVGID_00000165198245971265050460000005141587130613825464_);}
	.st38{opacity:0.05;fill-rule:evenodd;clip-rule:evenodd;fill:url(#SVGID_00000071538666791440263170000010768808972532527765_);}
	.st39{fill:#B52183;}
	.st40{fill:#7D7D7D;}
	.st41{fill-rule:evenodd;clip-rule:evenodd;fill:url(#SVGID_00000074429254930991303450000015813109630154403461_);}
	.st42{fill-rule:evenodd;clip-rule:evenodd;fill:url(#SVGID_00000116928781871215168860000006474387701462071701_);}
	.st43{fill-rule:evenodd;clip-rule:evenodd;fill:url(#SVGID_00000170961062983986155910000008031751082396697476_);}
	.st44{fill-rule:evenodd;clip-rule:evenodd;fill:url(#SVGID_00000152247604215174248440000003386246669212343977_);}
	.st45{fill-rule:evenodd;clip-rule:evenodd;fill:url(#SVGID_00000019679850762433119830000011512833100090834560_);}
	.st46{fill-rule:evenodd;clip-rule:evenodd;fill:url(#SVGID_00000177463330603749678690000001750165789122500237_);}
	.st47{opacity:0.99;}
	.st48{opacity:0.05;fill-rule:evenodd;clip-rule:evenodd;fill:url(#SVGID_00000183969452895561651410000012023912191833303454_);}
	.st49{opacity:0.05;fill-rule:evenodd;clip-rule:evenodd;fill:url(#SVGID_00000017484510679342508300000012257298549500281521_);}
	.st50{opacity:0.05;fill-rule:evenodd;clip-rule:evenodd;fill:url(#SVGID_00000072270042572140591320000011621130777305895343_);}
	.st51{opacity:0.05;fill-rule:evenodd;clip-rule:evenodd;fill:url(#SVGID_00000160913563267905642810000018201250153270704052_);}
	.st52{opacity:0.05;fill-rule:evenodd;clip-rule:evenodd;fill:url(#SVGID_00000035527464998848986120000003260209561360196759_);}
	.st53{opacity:0.05;fill-rule:evenodd;clip-rule:evenodd;fill:url(#SVGID_00000176021653906207004480000006316389454539246730_);}
	.st54{opacity:0.13;fill:#CFCFCE;}
</style>
<g>
	<g>
		<polygon class="st12" points="0,127.55 122.34,127.55 144.43,149.94 595.28,149.94 595.28,187.01 0,187.01 		"/>
		<polygon class="st39" points="0,132.18 119.36,132.18 141.85,154.97 513.7,154.97 510.94,157.76 420.18,157.76 413.59,164.44 
			116.38,164.44 105.14,153.04 123.53,153.04 110.81,140.14 0,140.14 		"/>
		<polygon class="st39" points="0,153.21 63.97,153.21 74.47,163.86 0,163.86 		"/>
		<polygon class="st40" points="0,118.6 127.4,118.6 148.85,140.33 391.89,140.33 384.44,132.78 154.21,132.78 129.49,107.73 
			0,107.73 		"/>
	</g>
	<g class="st47">
		
			<linearGradient id="SVGID_1_" gradientUnits="userSpaceOnUse" x1="-163.5938" y1="-1968.578" x2="30.8668" y2="-1799.9879" gradientTransform="matrix(1 0 0 -1 477.6316 -1803.9945)">
			<stop  offset="0" style="stop-color:#7E2D87"/>
			<stop  offset="0.51" style="stop-color:#7E2D87"/>
			<stop  offset="0.67" style="stop-color:#A72286"/>
			<stop  offset="1" style="stop-color:#CF1385"/>
		</linearGradient>
		<path style="opacity:0.05;fill-rule:evenodd;clip-rule:evenodd;fill:url(#SVGID_1_);" d="M488.7,0h-12.52
			c-28.08,0-53.72,20.49-57.9,48.25l0,0c-2.16,14.35-1.02,29.18-1.35,43.8l0,0c0,0.16,0.19,0.32,0.33,0.54h29.63v-3.45
			c0-9.46-0.04-18.92,0-28.38l0,0c0.1-17.78,13.1-30.72,30.81-30.74l0,0c9.36,0,18.73,0,28.1,0h3.3c0.13-0.56,0.21-1.12,0.26-1.69
			l0,0c0-9.25,0-18.51,0-28.29H488.7V0z"/>
		
			<linearGradient id="SVGID_00000090254080812025745800000014827615970798740887_" gradientUnits="userSpaceOnUse" x1="-111.4341" y1="-2030.7699" x2="84.0761" y2="-1862.5186" gradientTransform="matrix(1 0 0 -1 477.6316 -1803.9945)">
			<stop  offset="0" style="stop-color:#7E2D87"/>
			<stop  offset="0.51" style="stop-color:#7E2D87"/>
			<stop  offset="0.67" style="stop-color:#A72286"/>
			<stop  offset="1" style="stop-color:#CF1385"/>
		</linearGradient>
		
			<path style="opacity:0.05;fill-rule:evenodd;clip-rule:evenodd;fill:url(#SVGID_00000090254080812025745800000014827615970798740887_);" d="
			M462.96,109.04v29.86c11.67,0,23.12,0.18,34.56,0l0,0c30.7-0.56,56.57-25.51,57.95-56.13l0,0c0.52-11.44,0.18-22.9,0.2-34.35l0,0
			c-0.05-0.58-0.16-1.14-0.34-1.69h-29.71v3.64l0,0c0,9.76,0.17,19.52-0.08,29.27l0,0c-0.42,16.61-13.5,29.2-30.1,29.25l0,0
			c-5.88,0-11.76,0-17.63,0h-11.65C465.11,108.89,464.05,108.98,462.96,109.04z"/>
		
			<linearGradient id="SVGID_00000026121239734590904260000003950408829959388038_" gradientUnits="userSpaceOnUse" x1="-301.5432" y1="-1632.1049" x2="-105.0086" y2="-1463.1761" gradientTransform="matrix(1 0 0 -1 636.6316 -1440.3845)">
			<stop  offset="0" style="stop-color:#7E2D87"/>
			<stop  offset="0.51" style="stop-color:#7E2D87"/>
			<stop  offset="0.67" style="stop-color:#A72286"/>
			<stop  offset="1" style="stop-color:#CF1385"/>
		</linearGradient>
		
			<polygon style="opacity:0.05;fill-rule:evenodd;clip-rule:evenodd;fill:url(#SVGID_00000026121239734590904260000003950408829959388038_);" points="
			525.66,29.96 555.48,29.96 555.48,0.25 555.48,0.25 525.66,0.25 525.66,0.25 		"/>
	</g>
</g>
</svg>
