<svg id="Layer_1" data-name="Layer 1" xmlns="http://www.w3.org/2000/svg" xmlns:xlink="http://www.w3.org/1999/xlink" viewBox="0 0 517.48 164.15"><defs><style>.cls-1{fill:#606162;}.cls-1,.cls-2,.cls-3,.cls-4{fill-rule:evenodd;}.cls-2{fill:url(#GradientFill_1);}.cls-3{fill:url(#GradientFill_1-2);}.cls-4{fill:url(#GradientFill_1-3);}</style><linearGradient id="GradientFill_1" x1="37.46" y1="558.02" x2="267.17" y2="358.87" gradientUnits="userSpaceOnUse"><stop offset="0" stop-color="#7e2b87"/><stop offset="0.51" stop-color="#7e2b87"/><stop offset="0.67" stop-color="#a62287"/><stop offset="1" stop-color="#d01186"/></linearGradient><linearGradient id="GradientFill_1-2" x1="99.07" y1="631.48" x2="330.02" y2="432.73" xlink:href="#GradientFill_1"/><linearGradient id="GradientFill_1-3" x1="-96.67" y1="226.47" x2="135.49" y2="26.92" xlink:href="#GradientFill_1"/></defs><path class="cls-1" d="M364.28,481.89q-3,0-6.85.22V465.73c.79,0,1.75.08,2.86.08h4q8,0,8,8t-8,8ZM383,504.75a17.4,17.4,0,0,1-1.5-3.2L378.72,494a15.36,15.36,0,0,0-2.27-4.25,7,7,0,0,0-3.24-2.3,12.42,12.42,0,0,0,3.69-2,15.2,15.2,0,0,0,2.94-3.05,14,14,0,0,0,2-3.95,15.09,15.09,0,0,0,.71-4.65q0-7.67-4.73-11.69t-12.77-4c-1.69,0-3.93,0-6.74.07s-6.21.13-10.24.23l-.52.44v50.49a28.72,28.72,0,0,0,4.84.37c1,0,1.91,0,2.76-.11s1.61-.17,2.31-.26V489.86H362a6.42,6.42,0,0,1,4.49,1.38,10.09,10.09,0,0,1,2.47,4l3.14,8.86a12.33,12.33,0,0,0,2.44,4.54,4.76,4.76,0,0,0,3.55,1.34,9.83,9.83,0,0,0,4.11-.82A6.72,6.72,0,0,0,385,507,7.7,7.7,0,0,1,383,504.75Z" transform="translate(-159 -363.61)"/><path class="cls-1" d="M409.55,499.76a9.82,9.82,0,0,1-7,3.28,3.91,3.91,0,0,1-3.05-1.23,4.93,4.93,0,0,1-1.12-3.46,4.65,4.65,0,0,1,1.71-4.06,8.51,8.51,0,0,1,5-1.23c.69,0,1.41,0,2.16.07l2.31.15v6.48Zm9.68-15.63q0-6.35-3.58-9.46a13.36,13.36,0,0,0-9.16-3.13,41.39,41.39,0,0,0-16.3,3.35c.29,3.08,1.14,5.39,2.53,6.93q7.59-2.61,11.32-2.61,5.5,0,5.51,5.66v2q-2.24-.22-6.26-.22a19.34,19.34,0,0,0-5.77.82,14.05,14.05,0,0,0-4.62,2.38,10.51,10.51,0,0,0-3,3.91,13,13,0,0,0-1.08,5.47,12.51,12.51,0,0,0,.71,4.17,10.06,10.06,0,0,0,2.16,3.57,10.35,10.35,0,0,0,3.65,2.5,13,13,0,0,0,5.1.93q5.73,0,10.57-4.69A9.09,9.09,0,0,0,418,510a9.23,9.23,0,0,0,1.93-2.23,10.41,10.41,0,0,0,1.34-2.83q-2.08-1.56-2.08-5.51Z" transform="translate(-159 -363.61)"/><path class="cls-1" d="M445.07,487.18l-4.55-1.64q-3.72-1.34-3.72-3.65a3,3,0,0,1,1.11-2.42,4.66,4.66,0,0,1,3.06-.93,25.88,25.88,0,0,1,10.2,2.61,6.54,6.54,0,0,0,2-3,11,11,0,0,0,.74-3.87,19.18,19.18,0,0,0-2.83-1.12q-1.63-.53-3.42-.93a34.64,34.64,0,0,0-3.54-.63,25,25,0,0,0-3.16-.23,18.2,18.2,0,0,0-5.66.82,12.81,12.81,0,0,0-4.35,2.35,10.53,10.53,0,0,0-2.83,3.64,11.13,11.13,0,0,0-1,4.81q0,7.51,9.38,10.94l4.17,1.57q4,1.56,4,4.17a3,3,0,0,1-1.52,2.6,7.32,7.32,0,0,1-4,1q-4.47,0-10.35-3.2a9.86,9.86,0,0,0-2,3.09,10.36,10.36,0,0,0-.93,3.61,26.7,26.7,0,0,0,13.55,3.65q7.36,0,11.32-3.16a10.29,10.29,0,0,0,3.94-8.46,10.75,10.75,0,0,0-2.38-6.92A15.63,15.63,0,0,0,445.07,487.18Z" transform="translate(-159 -363.61)"/><path class="cls-1" d="M466.88,466.85a19.34,19.34,0,0,0,4.65-.74c.47-.25.78-1.64.94-4.17a17.21,17.21,0,0,0-.16-2.31,2.26,2.26,0,0,0-.67-1.53,4.84,4.84,0,0,0-1.67-.71,13,13,0,0,0-3-.29,10.19,10.19,0,0,0-4.91,1,9.63,9.63,0,0,0-.75,3.88,7,7,0,0,0,.71,3.79Q462.71,466.71,466.88,466.85Z" transform="translate(-159 -363.61)"/><path class="cls-1" d="M466.14,472.14h-1.27c-.7,0-1.53,0-2.5.11l-3.16.26a14,14,0,0,0-.45,3.43,12.83,12.83,0,0,0,.45,3.42h1q3.35,0,3.35,4.1v25.91a19.27,19.27,0,0,0,2.42.29c.82,0,1.65.08,2.49.08s1.68,0,2.5-.08a17,17,0,0,0,2.34-.29V480a8.18,8.18,0,0,0-1.9-5.74A6.72,6.72,0,0,0,466.14,472.14Z" transform="translate(-159 -363.61)"/><path class="cls-1" d="M503.29,498.72q-2.84,3.72-6.7,3.72c-1.64,0-3-.9-4-2.72S491,495.07,491,491.2s.58-7,1.74-9,2.72-3.05,4.66-3.05a8.14,8.14,0,0,1,2.75.55,17.29,17.29,0,0,1,3.13,1.61v17.42Zm9.53,0V460.6c0-2.24-.4-3.8-1.19-4.69s-2.16-1.35-4.1-1.35h-3.72l-.52.52V473.7a17,17,0,0,0-7.6-2A12.45,12.45,0,0,0,490,473a13.8,13.8,0,0,0-4.62,3.83,19.42,19.42,0,0,0-3.13,6.07,26.41,26.41,0,0,0-1.15,8.12,35.83,35.83,0,0,0,.82,8,18.34,18.34,0,0,0,2.46,6.07,11.86,11.86,0,0,0,4.05,3.87,11.19,11.19,0,0,0,5.63,1.38,13.85,13.85,0,0,0,10.64-4.84,8.32,8.32,0,0,0,7,4.39,7.72,7.72,0,0,0,2-2.23,9.28,9.28,0,0,0,1.22-2.83Q512.82,503.27,512.82,498.72Z" transform="translate(-159 -363.61)"/><path class="cls-1" d="M553.25,458.51v33q0,5.44-1.56,7.94t-5.34,2.5a14.41,14.41,0,0,1-7.64-2.46,15.44,15.44,0,0,0-3.56,7.45,22.21,22.21,0,0,0,11.84,3.2,20,20,0,0,0,8-1.38,11.75,11.75,0,0,0,5-4,16.09,16.09,0,0,0,2.57-6.29,42.88,42.88,0,0,0,.71-8.11v-31.8a34.31,34.31,0,0,0-10,0Z" transform="translate(-159 -363.61)"/><path class="cls-1" d="M590.33,499.76a9.82,9.82,0,0,1-7,3.28,3.91,3.91,0,0,1-3.05-1.23,4.93,4.93,0,0,1-1.12-3.46,4.65,4.65,0,0,1,1.71-4.06,8.51,8.51,0,0,1,5-1.23c.69,0,1.41,0,2.16.07l2.31.15v6.48ZM600,484.13q0-6.35-3.58-9.46a13.36,13.36,0,0,0-9.16-3.13,41.39,41.39,0,0,0-16.3,3.35q.45,4.62,2.53,6.93c5.07-1.74,8.83-2.61,11.32-2.61q5.5,0,5.51,5.66v2q-2.24-.22-6.26-.22a19.3,19.3,0,0,0-5.77.82,13.9,13.9,0,0,0-4.61,2.38,10.43,10.43,0,0,0-3.06,3.91,13,13,0,0,0-1.08,5.47,12.51,12.51,0,0,0,.71,4.17,10.06,10.06,0,0,0,2.16,3.57,10.35,10.35,0,0,0,3.65,2.5,13,13,0,0,0,5.1.93q5.73,0,10.57-4.69a9.09,9.09,0,0,0,7.08,4.24,9,9,0,0,0,1.93-2.23,10.41,10.41,0,0,0,1.34-2.83q-2.08-1.56-2.08-5.51Z" transform="translate(-159 -363.61)"/><path class="cls-1" d="M622.68,478.69q3.26,0,4.33,2.31a16.77,16.77,0,0,1,1.07,6.77,17.47,17.47,0,0,0,3.87.38,4.84,4.84,0,0,0,3.69-1.31,5.19,5.19,0,0,0,1.22-3.68,10.67,10.67,0,0,0-1-4.55,11.27,11.27,0,0,0-2.83-3.75,13.5,13.5,0,0,0-4.47-2.54,17.72,17.72,0,0,0-5.92-.93,15.54,15.54,0,0,0-6,1.19,14.74,14.74,0,0,0-5.1,3.58,17.21,17.21,0,0,0-3.54,5.95,24.31,24.31,0,0,0-1.3,8.34q0,9.32,4,14.64t11.84,5.32a19.94,19.94,0,0,0,7.71-1.53,18.7,18.7,0,0,0,6.21-4.06,8.72,8.72,0,0,0-1.45-3.16,8.34,8.34,0,0,0-2.33-2.42,18.05,18.05,0,0,1-4.6,2.6,12,12,0,0,1-4.15.83,6,6,0,0,1-5.49-2.76c-1.14-1.83-1.71-4.79-1.71-8.86Q616.76,478.69,622.68,478.69Z" transform="translate(-159 -363.61)"/><path class="cls-1" d="M672.9,500.81l-2.16-5.8a10.25,10.25,0,0,0-6.47-6.54,9.92,9.92,0,0,0,3.12-3.66l6.93-11.93-.45-.59c-2.38-.1-4.17-.15-5.36-.15a6.32,6.32,0,0,0-5.81,3.72l-5.13,8.86a2.13,2.13,0,0,1-1.94,1.19l-1.86.08V460.6c0-2.19-.39-3.74-1.16-4.66s-2.12-1.38-4.06-1.38h-3.79l-.45.52v54.29a30.42,30.42,0,0,0,9.46,0v-15.2c1.19-.09,2.31-.14,3.35-.14a4.33,4.33,0,0,1,2.71.89,7.86,7.86,0,0,1,2.13,3.41l2.53,6.81a9.81,9.81,0,0,0,2.09,3.67,4.63,4.63,0,0,0,3.34,1.08,8.35,8.35,0,0,0,6.56-3C675.19,506,674,503.94,672.9,500.81Z" transform="translate(-159 -363.61)"/><path class="cls-1" d="M392.52,401.09H381a4.6,4.6,0,0,1-3-2.67,7.23,7.23,0,0,1-.83-2.91v-.75a7.79,7.79,0,0,1,.23-2,2.47,2.47,0,0,1,2.41-1.77,4.21,4.21,0,0,1,2.45.64,5.55,5.55,0,0,1,1.58,3.05l7.28-.9a9.57,9.57,0,0,0-3.54-5.92,12.16,12.16,0,0,0-7.77-2.45q-7.35,0-9.5,5.88a9.08,9.08,0,0,0-.64,3.39,9.41,9.41,0,0,0,.07,1.17,12.37,12.37,0,0,0,1.74,5.24h-4.19v5.51h25.26Z" transform="translate(-159 -363.61)"/><path class="cls-1" d="M398.29,409c0,3.72-.86,6.49-2.56,8.3a8.35,8.35,0,0,1-6.34,2.3H368.47a8.33,8.33,0,0,1-6.33-2.3q-2.56-2.72-2.57-8.3a15.11,15.11,0,0,1,.23-2.75,31.23,31.23,0,0,1,1.81-5l-10.26-2.9a30.82,30.82,0,0,0-2.15,6.3,25.36,25.36,0,0,0-.37,4.37q0,9.24,5.2,14.78,5.73,6.08,15.57,6.07h19.79q9.84,0,15.57-6.07,5.21-5.53,5.21-14.78V381H398.29Z" transform="translate(-159 -363.61)"/><path class="cls-1" d="M492.8,417.46q-1.47-13.47-4.38-19-5.24-10-18-10a24.64,24.64,0,0,0-8.29,1.36,18.55,18.55,0,0,0-6.79,4.18,16.51,16.51,0,0,0-2.52,3.09,41.25,41.25,0,0,0-2.91,6.49L461.54,406a24.4,24.4,0,0,1,1.66-3.88,6,6,0,0,1,1.06-1.32,6.94,6.94,0,0,1,2.45-1.51,11.09,11.09,0,0,1,3.69-.56q5.43,0,7.77,5.46,1.65,3.88,2.79,14.25l.15,1.13-32.2,0H433.69a2.92,2.92,0,0,1-2.07-1,4.26,4.26,0,0,1-1.28-3.21V381H418.46v34.42a13.52,13.52,0,0,0,4.18,9.92,15,15,0,0,0,11.05,4.52h53.79c.3,0,.6,0,.9,0a5.94,5.94,0,0,0,3.74-1.62,4.51,4.51,0,0,0,1.58-3.46,4.06,4.06,0,0,0-.07-.84C493.4,422.61,493.12,420.47,492.8,417.46Z" transform="translate(-159 -363.61)"/><path class="cls-1" d="M474.55,435.21a5.18,5.18,0,0,0-3.62-1.51,4.92,4.92,0,0,0-1.94.4,5.31,5.31,0,0,0-2.77,2.77,5,5,0,0,0,1.13,5.62,5.47,5.47,0,0,0,1.64,1.07,4.75,4.75,0,0,0,1.94.4,4.91,4.91,0,0,0,2-.4,5.32,5.32,0,0,0,1.66-1.07,4.7,4.7,0,0,0,1.11-1.6,5.25,5.25,0,0,0,0-4A5,5,0,0,0,474.55,435.21Z" transform="translate(-159 -363.61)"/><path class="cls-1" d="M558.51,435.33a5.23,5.23,0,0,0-1.66-1.12,5.08,5.08,0,0,0-2-.39,4.94,4.94,0,0,0-1.94.39,5.26,5.26,0,0,0-1.64,1.12,5.11,5.11,0,0,0-1.13,1.65,5,5,0,0,0,0,4,4.79,4.79,0,0,0,1.13,1.6,5.47,5.47,0,0,0,1.64,1.07,4.78,4.78,0,0,0,1.94.4,4.91,4.91,0,0,0,2-.4,5.44,5.44,0,0,0,1.66-1.07,4.6,4.6,0,0,0,1.11-1.6,5.25,5.25,0,0,0,0-4A4.9,4.9,0,0,0,558.51,435.33Z" transform="translate(-159 -363.61)"/><path class="cls-1" d="M570.58,435.33a5.34,5.34,0,0,0-1.66-1.12,5.08,5.08,0,0,0-2-.39,4.91,4.91,0,0,0-1.94.39,5.3,5.3,0,0,0-1.65,1.12,5.44,5.44,0,0,0-1.13,1.65,5.13,5.13,0,0,0,0,4,5.1,5.1,0,0,0,1.13,1.6,5.52,5.52,0,0,0,1.65,1.07,4.75,4.75,0,0,0,1.94.4,4.91,4.91,0,0,0,2-.4,5.56,5.56,0,0,0,1.66-1.07,4.89,4.89,0,0,0,1.11-1.6,5.18,5.18,0,0,0-1.11-5.67Z" transform="translate(-159 -363.61)"/><path class="cls-1" d="M640.68,417.08a8.24,8.24,0,0,1-6.18,2.49H593.61V409.39q0-5.58,2.56-8.33c1.46-1.54,3.57-2.3,6.34-2.3h31.91c2.77,0,4.88.76,6.33,2.3,1.72,1.83,2.57,4.61,2.57,8.33,0,3.31-.88,5.88-2.64,7.69Zm-6.26-28.58H602.51c-6.24.05-10.2,2.09-11.92,6.11l-2.07-5.84-9.95,6q2.89,4.33,3,13v11.84H572.5a4.59,4.59,0,0,1-3.43-1.36,6.4,6.4,0,0,1-1.55-4.19V395.29H555.61v18a6.85,6.85,0,0,1-1.58,4.94,4.73,4.73,0,0,1-3.55,1.32H544.6l-.23-2.11q-1.47-13.47-4.37-19-5.24-9.94-20.66-9.95v10.26q8.07,0,10.4,5.46,1.66,3.88,2.8,14.25l.15,1.13-9.92,0a5.55,5.55,0,0,1-2.19-.38,19.36,19.36,0,0,1-3.92-3.09l-4.37,11,2.94,1.28a19,19,0,0,0,7.54,1.47h27.71q7.85,0,11.09-3.39,3.2,3.39,10.93,3.39h62q9.42,0,15.3-6.14,5.4-5.58,5.4-14.29,0-9.27-5.21-14.78Q644.26,388.51,634.42,388.5Z" transform="translate(-159 -363.61)"/><path class="cls-1" d="M664.15,395.29v26.65a19.35,19.35,0,0,1-2.15,9.28,21.11,21.11,0,0,1-2.34,3.32,77.3,77.3,0,0,1-6.3,6.25l9.84,5.92a72.7,72.7,0,0,0,6.11-6.14,31.61,31.61,0,0,0,3.47-5.06A29,29,0,0,0,676,421.75V395.29Z" transform="translate(-159 -363.61)"/><path class="cls-2" d="M243.79,363.61H229c-33.17,0-63.46,24.21-68.39,57h0c-2.55,16.95-1.2,34.47-1.6,51.74h0c0,.19.23.38.39.64h35v-4.08c0-11.17-.05-22.35,0-33.53h0c.12-21,15.48-36.29,36.39-36.31h0q16.59,0,33.19,0h3.9a14.92,14.92,0,0,0,.31-2h0c0-10.93,0-21.86,0-33.42h-24.4Z" transform="translate(-159 -363.61)"/><path class="cls-3" d="M213.38,492.41v35.27c13.79,0,27.31.21,40.82,0h0c36.26-.66,66.82-30.14,68.46-66.31h0c.61-13.51.21-27.05.24-40.58h0a9.23,9.23,0,0,0-.4-2H287.41v4.3h0c0,11.53.2,23.06-.1,34.58h0c-.5,19.62-15.95,34.49-35.56,34.55h0c-6.95,0-13.89,0-20.83,0H217.16C215.92,492.24,214.67,492.35,213.38,492.41Z" transform="translate(-159 -363.61)"/><polygon class="cls-4" points="128.45 35.39 163.67 35.39 163.67 0.29 163.67 0.29 128.45 0.29 128.45 0.29 128.45 35.39"/></svg>