<svg xmlns="http://www.w3.org/2000/svg" xmlns:xlink="http://www.w3.org/1999/xlink" width="364" height="190" viewBox="0 0 364 190">
  <defs>
    <linearGradient id="linear-gradient" x1="0.5" x2="0.5" y2="0.958" gradientUnits="objectBoundingBox">
      <stop offset="0" stop-color="#abc0ff"/>
      <stop offset="1" stop-color="#274088"/>
    </linearGradient>
    <linearGradient id="linear-gradient-2" x1="0.5" x2="0.5" y2="0.958" gradientUnits="objectBoundingBox">
      <stop offset="0" stop-color="#547fff"/>
      <stop offset="1" stop-color="#274088"/>
    </linearGradient>
    <clipPath id="clip-path">
      <rect id="Rectangle_6879" data-name="Rectangle 6879" width="364" height="190" rx="10" transform="translate(-14582 -1256.031)" fill="url(#linear-gradient)"/>
    </clipPath>
    <clipPath id="clip-path-2">
      <rect id="Rectangle_6901" data-name="Rectangle 6901" width="28" height="28" transform="translate(315 171)" fill="#fff" stroke="#707070" stroke-width="1"/>
    </clipPath>
  </defs>
  <g id="Home-Card-Icon" transform="translate(14582 1256)">
    <g id="Home-Card-Icon-2" data-name="Home-Card-Icon">
      <rect id="Rectangle_6878" data-name="Rectangle 6878" width="364" height="190" rx="10" transform="translate(-14582 -1256)" fill="url(#linear-gradient-2)"/>
      <g id="Mask_Group_8252" data-name="Mask Group 8252" transform="translate(0 0.031)" clip-path="url(#clip-path)">
        <path id="Path_10215" data-name="Path 10215" d="M968.949,316.245H337.407c-148.634-.419-243.2-.993-243.445-1.754l-.188-.44a2.4,2.4,0,0,1-.187-.64c-.232-.529-28.24-46.468-53.746-119.676C21.481,141.025,4.433,74.19,0,0,54.529.706,182.718,16.386,279.57,137.651,405.9,295.8,874.778,89.671,968.949,316.245" transform="translate(-14775.771 -1241.454) rotate(-9)" fill="#6f86bc" opacity="0.15"/>
      </g>
    </g>
    <g id="sun" transform="translate(-14820 -1412)" clip-path="url(#clip-path-2)">
      <g id="Home-Sun-Icon" transform="translate(315 171)">
        <g id="Group_10094" data-name="Group 10094">
          <circle id="Ellipse_87" data-name="Ellipse 87" cx="7.92" cy="7.92" r="7.92" transform="translate(6.08 6.08)" fill="#ffd347"/>
          <path id="Path_10306" data-name="Path 10306" d="M9.151,3.109a.423.423,0,0,1-.423-.423V.423a.423.423,0,0,1,.846,0V2.686A.423.423,0,0,1,9.151,3.109Z" transform="translate(4.849)" fill="#ffd347"/>
          <path id="Path_10307" data-name="Path 10307" d="M5.919,3.975a.423.423,0,0,1-.367-.212L4.421,1.8a.423.423,0,0,1,.733-.423L6.285,3.34a.423.423,0,0,1-.366.635Z" transform="translate(2.424 0.65)" fill="#ffd347"/>
          <path id="Path_10308" data-name="Path 10308" d="M3.552,6.342a.421.421,0,0,1-.211-.057L1.381,5.154A.423.423,0,0,1,1.8,4.421l1.96,1.131a.423.423,0,0,1-.212.79Z" transform="translate(0.65 2.424)" fill="#ffd347"/>
          <path id="Path_10309" data-name="Path 10309" d="M2.686,9.574H.423a.423.423,0,0,1,0-.846H2.686a.423.423,0,1,1,0,.846Z" transform="translate(0 4.849)" fill="#ffd347"/>
          <path id="Path_10310" data-name="Path 10310" d="M1.593,14.342a.423.423,0,0,1-.212-.79l1.96-1.131a.423.423,0,1,1,.423.733L1.8,14.286A.422.422,0,0,1,1.593,14.342Z" transform="translate(0.65 6.869)" fill="#ffd347"/>
          <path id="Path_10311" data-name="Path 10311" d="M4.787,17.833a.423.423,0,0,1-.366-.635l1.131-1.96a.423.423,0,1,1,.733.423l-1.131,1.96A.423.423,0,0,1,4.787,17.833Z" transform="translate(2.424 8.348)" fill="#ffd347"/>
          <path id="Path_10312" data-name="Path 10312" d="M9.151,19.11a.423.423,0,0,1-.423-.423V16.424a.423.423,0,0,1,.846,0v2.263A.423.423,0,0,1,9.151,19.11Z" transform="translate(4.849 8.89)" fill="#ffd347"/>
          <path id="Path_10313" data-name="Path 10313" d="M13.92,17.833a.423.423,0,0,1-.367-.212l-1.131-1.96a.423.423,0,1,1,.733-.423l1.131,1.96a.423.423,0,0,1-.366.635Z" transform="translate(6.869 8.348)" fill="#ffd347"/>
          <path id="Path_10314" data-name="Path 10314" d="M17.409,14.342a.421.421,0,0,1-.211-.057l-1.96-1.131a.423.423,0,1,1,.423-.733l1.96,1.131a.423.423,0,0,1-.212.79Z" transform="translate(8.348 6.869)" fill="#ffd347"/>
          <path id="Path_10315" data-name="Path 10315" d="M18.687,9.574H16.424a.423.423,0,0,1,0-.846h2.263a.423.423,0,0,1,0,.846Z" transform="translate(8.89 4.849)" fill="#ffd347"/>
          <path id="Path_10316" data-name="Path 10316" d="M15.45,6.342a.423.423,0,0,1-.212-.79L17.2,4.421a.423.423,0,1,1,.423.733l-1.96,1.131A.422.422,0,0,1,15.45,6.342Z" transform="translate(8.348 2.424)" fill="#ffd347"/>
          <path id="Path_10317" data-name="Path 10317" d="M12.787,3.975a.423.423,0,0,1-.366-.635l1.131-1.96a.423.423,0,1,1,.733.423l-1.131,1.96A.423.423,0,0,1,12.787,3.975Z" transform="translate(6.869 0.65)" fill="#ffd347"/>
        </g>
        <path id="Path_10318" data-name="Path 10318" d="M9.3,3.909a8.023,8.023,0,0,0-.849.045,7.92,7.92,0,0,1,0,15.749A7.92,7.92,0,1,0,9.3,3.909Z" transform="translate(4.697 2.171)" fill="#ffbe31"/>
      </g>
    </g>

  </g>
</svg>
